Coordinates
version=1
nRows=5
nColumns=46
inDegrees=yes

Units are S.I. units (second, meters, Newtons, ...)
Angles are in degrees.

endheader
time	pelvis_tilt	pelvis_list	pelvis_rotation	pelvis_tx	pelvis_ty	pelvis_tz	bb_angle	bb_tx	bb_ty	bb_tz	hip_flexion_r	hip_adduction_r	hip_rotation_r	knee_angle_r	knee_angle_r_beta	ankle_angle_r	subtalar_angle_r	mtp_angle_r	crank_angle_r	hip_flexion_l	hip_adduction_l	hip_rotation_l	knee_angle_l	knee_angle_l_beta	ankle_angle_l	subtalar_angle_l	mtp_angle_l	crank_angle_l	lumbar_extension	lumbar_bending	lumbar_rotation	arm_flex_r	arm_add_r	arm_rot_r	elbow_flex_r	pro_sup_r	wrist_flex_r	wrist_dev_r	arm_flex_l	arm_add_l	arm_rot_l	elbow_flex_l	pro_sup_l	wrist_flex_l	wrist_dev_l
      0.00500000	    -17.80954952	      6.53327061	      2.46755811	      0.13759609	      1.11305627	     -0.27191280	      0.00000000	      0.50000000	      0.00000000	      0.25000000	     43.46159777	    -10.92407843	      0.19846252	     47.47802550	      0.82864787	      9.74812886	     -5.57596392	      0.00000000	      0.00000000	     91.69673471	     -6.47028608	     -4.07345002	    105.01547213	      1.83286575	     20.05171599	      1.58646591	      0.00000000	      0.00000000	    -42.19884867	     -1.90837271	    -10.21143307	     83.92464741	      0.48762672	     38.58565460	     49.44350764	     30.25388525	      0.00000000	      0.00000000	     75.15806687	    -16.81241302	     71.97122439	     17.21749438	     30.68952722	      0.00000000	      0.00000000
      0.01000000	    -17.80124578	      6.55169259	      2.47235967	      0.13758991	      1.11306832	     -0.27189834	      0.00000000	      0.50000000	      0.00000000	      0.25000000	     43.46028402	    -10.94483735	      0.19714909	     47.47601378	      0.82861276	      9.74019493	     -5.57493508	      0.00000000	      0.00000000	     91.68379056	     -6.44823549	     -4.08162328	    105.02255997	      1.83298946	     20.05919302	      1.56524283	      0.00000000	      0.00000000	    -42.22494071	     -1.96180663	    -10.12582459	     83.84072556	      0.27638660	     38.94145415	     49.07089805	     33.25348705	      0.00000000	      0.00000000	     75.58653624	    -16.85409025	     73.95886126	     16.26840982	     34.56624954	      0.00000000	      0.00000000
      0.01500000	    -17.82081275	      6.53284339	      2.47566729	      0.13759145	      1.11303954	     -0.27189374	      0.00000000	      0.50000000	      0.00000000	      0.25000000	     43.46883999	    -10.92790053	      0.19106604	     47.44879192	      0.82813765	      9.73425216	     -5.56588126	      0.00000000	      0.00000000	     91.72002890	     -6.43650840	     -4.04688868	    105.04662120	      1.83340941	     20.05816791	      1.56115437	      0.00000000	      0.00000000	    -42.19015206	     -1.90738390	    -10.26907055	     84.00097202	      0.54786612	     39.05206597	     48.43117119	     34.25795069	      0.00000000	      0.00000000	     75.11062622	    -16.72235356	     70.12529194	     16.48943170	     35.19726758	      0.00000000	      0.00000000
      0.02000000	    -17.66662468	      6.48043087	      2.48916316	      0.13776806	      1.11338709	     -0.27184285	      0.00000000	      0.50000000	      0.00000000	      0.25000000	     43.20051154	    -10.88527518	      0.11092329	     47.30572854	      0.82564072	      9.74742157	     -5.59617314	      0.00000000	      0.00000000	     91.54490810	     -6.43380595	     -3.98582768	    105.05952815	      1.83363468	     20.20842591	      1.84763544	      0.00000000	      0.00000000	    -42.37876866	     -1.78429175	    -10.45445737	     84.03057837	      0.81768237	     38.99841135	     48.24143342	     34.82233698	      0.00000000	      0.00000000	     74.76881748	    -16.89497359	     67.45951872	     17.00402261	     35.45955627	      0.00000000	      0.00000000
      0.02500000	    -17.84479957	      6.48364633	      2.46043394	      0.13757786	      1.11297317	     -0.27180093	      0.00000000	      0.50000000	      0.00000000	      0.25000000	     43.45918480	    -10.84217133	      0.21020981	     47.37112429	      0.82678209	      9.70456970	     -5.57620440	      0.00000000	      0.00000000	     91.77567036	     -6.43679975	     -3.98659195	    105.07716870	      1.83394256	     20.02329154	      1.51274887	      0.00000000	      0.00000000	    -42.16579234	     -1.94145300	    -10.07900807	     83.95607104	      0.17812290	     38.97990985	     48.56389609	     35.97240306	      0.00000000	      0.00000000	     75.65028879	    -16.82836227	     73.50016224	     15.63649896	     38.25049875	      0.00000000	      0.00000000
